<!DOCTYPE svg PUBLIC "-//W3C//DTD SVG 20010904//EN" "http://www.w3.org/TR/2001/REC-SVG-20010904/DTD/svg10.dtd">
<svg version="1.0" xmlns="http://www.w3.org/2000/svg" width="259px" height="183px" viewBox="0 0 2590 1830" preserveAspectRatio="xMidYMid meet">
<g id="layer101" fill="#ffffff" stroke="none">
 <path d="M1236 1534 l-78 -115 26 -202 c14 -111 26 -207 25 -212 0 -6 -18 53 -40 130 -22 77 -42 146 -45 154 -3 9 -25 -14 -59 -64 -55 -79 -56 -82 -39 -146 3 -13 -20 -24 -113 -53 -65 -20 -124 -39 -131 -42 -11 -3 -7 -15 13 -50 15 -26 21 -43 14 -39 -8 5 -32 20 -54 34 -52 33 -707 382 -710 379 -2 -2 129 -230 291 -508 161 -278 295 -509 296 -513 2 -4 117 51 256 124 139 72 255 130 256 128 2 -2 18 -69 36 -149 17 -80 34 -153 36 -163 9 -28 77 -57 137 -57 41 0 63 6 89 24 20 13 52 29 71 35 34 12 77 52 77 72 0 5 -25 9 -55 9 -42 0 -57 4 -62 16 -7 20 16 182 27 189 5 3 89 -37 187 -89 98 -51 201 -105 230 -119 l51 -26 223 387 c122 213 255 443 295 512 40 69 71 126 70 128 -4 3 -680 -357 -735 -392 l-44 -28 36 44 36 43 -120 34 c-128 36 -126 34 -110 103 8 35 5 43 -45 115 -34 48 -55 71 -58 62 -3 -8 -23 -77 -45 -154 -22 -77 -40 -136 -40 -130 -1 5 11 101 25 212 l26 202 -78 115 c-44 63 -81 115 -84 115 -3 0 -40 -52 -84 -115z"/>
 </g>

</svg>