<svg xmlns="http://www.w3.org/2000/svg" viewBox="0 0 463.17 91.52"><defs><style>.cls-1{fill:#fff;}</style></defs><g id="Layer_2" data-name="Layer 2"><g id="Layer_1-2" data-name="Layer 1"><g id="Layer_2-2" data-name="Layer 2"><g id="Layer_1-2-2" data-name="Layer 1-2"><path class="cls-1" d="M.31,73.21a4.32,4.32,0,0,1,.36-.67A2.33,2.33,0,0,1,1.14,72a.75.75,0,0,1,.53-.22H21a1,1,0,0,1,.71.27,2.66,2.66,0,0,1,.55.7,4.88,4.88,0,0,1,.36.92,3.83,3.83,0,0,1,.14,1V86.09a4.12,4.12,0,0,1-.09.86,3,3,0,0,1-.32.88,2.39,2.39,0,0,1-.59.68,1.5,1.5,0,0,1-.91.27H10.27L8,84.57h8.41a.6.6,0,0,0,.44-.18,1.45,1.45,0,0,0,.2-.93V77.21a1.82,1.82,0,0,0-.24-.79c-.17-.28-.35-.42-.55-.42H6.45a1,1,0,0,0-.44.41,2.81,2.81,0,0,0-.26.62.54.54,0,0,1,0,.18V91.5H.05V74.06a.8.8,0,0,1,.09-.3A2.69,2.69,0,0,1,.31,73.21Z"/><path class="cls-1" d="M44.16,71.79h5.66v6.32H60.38V71.79H66V88.73h-5.6V82.32H49.82v6.41H44.16Z"/><path class="cls-1" d="M89.13,88.73a2.7,2.7,0,0,1-1.7-2.45V74.39a3.09,3.09,0,0,1,.17-1,2.53,2.53,0,0,1,.47-.85,2.75,2.75,0,0,1,.68-.59,1.63,1.63,0,0,1,.84-.23h18.3a2,2,0,0,1,1.46.71,3.26,3.26,0,0,1,.88,1.68v12a2.75,2.75,0,0,1-.14.81,5.45,5.45,0,0,1-.35.87,2.29,2.29,0,0,1-.51.68.93.93,0,0,1-.61.27Zm4.09-5.23a6.08,6.08,0,0,0,.21.6c.1.24.24.37.42.37h9.93c.24,0,.43-.17.56-.51a2.61,2.61,0,0,0,.19-.92v-6a2.26,2.26,0,0,0-.44-.73.85.85,0,0,0-.65-.3H94.23a.85.85,0,0,0-.72.39,1.57,1.57,0,0,0-.27.91Z"/><path class="cls-1" d="M131.8,86.73a.75.75,0,0,1-.09-.3V70h5.69v3.18h11.19l-2.12,4.17h-9.11v5.9a.54.54,0,0,0,0,.18,2.39,2.39,0,0,0,.35.76.74.74,0,0,0,.65.34h9.32a.65.65,0,0,0,.59-.28,1.87,1.87,0,0,0,.29-.68,3.84,3.84,0,0,0,.09-.83v-.94h5.66v3.84a5.56,5.56,0,0,1-.1,1,5.06,5.06,0,0,1-.32,1,2.86,2.86,0,0,1-.53.77,1,1,0,0,1-.75.31H133.37a.83.83,0,0,1-.52-.21,2.52,2.52,0,0,1-.47-.51,3.21,3.21,0,0,1-.37-.65A3.79,3.79,0,0,1,131.8,86.73Z"/><path class="cls-1" d="M177.59,88.73a2.7,2.7,0,0,1-1.24-1,2.59,2.59,0,0,1-.45-1.45V74.39a3.09,3.09,0,0,1,.17-1,2.69,2.69,0,0,1,.46-.85,3,3,0,0,1,.69-.59,1.62,1.62,0,0,1,.83-.23h18.31a2,2,0,0,1,1.45.71,3.12,3.12,0,0,1,.88,1.68v12a2.8,2.8,0,0,1-.13.81,5.45,5.45,0,0,1-.35.87,2.58,2.58,0,0,1-.51.68,1,1,0,0,1-.61.27Zm4.09-5.23a6.08,6.08,0,0,0,.21.6c.1.24.25.37.43.37h9.93c.23,0,.42-.17.56-.51A2.61,2.61,0,0,0,193,83v-6a2.07,2.07,0,0,0-.43-.73.93.93,0,0,0-.66-.3h-9.2a.86.86,0,0,0-.73.39,1.57,1.57,0,0,0-.27.91Z"/><path class="cls-1" d="M243.11,80.38v11h-5.88V88.77H222.31a1.55,1.55,0,0,1-1-.29,2.2,2.2,0,0,1-.68-.74,3.64,3.64,0,0,1-.41-1,5.39,5.39,0,0,1-.14-1.2v-11a3.28,3.28,0,0,1,.12-.88,4.3,4.3,0,0,1,.35-.9,4.1,4.1,0,0,1,.5-.68.84.84,0,0,1,.61-.27h21.06L240.4,76H226.67a.44.44,0,0,0-.33.18,2.6,2.6,0,0,0-.28.45,5.05,5.05,0,0,0-.18.55,2.3,2.3,0,0,0,0,.45v5.59c0,.77.23,1.15.72,1.15h10c.16,0,.3-.14.43-.44a4.25,4.25,0,0,0,.23-.77V80.43Z"/><path class="cls-1" d="M280.75,88.73l-10.16-8.47h10a.35.35,0,0,0,.21-.11,1.23,1.23,0,0,0,.28-.23,1.26,1.26,0,0,0,.42-.66,3,3,0,0,0,.13-.94,5.77,5.77,0,0,0-.16-1.24,6.45,6.45,0,0,0-.21-.62.51.51,0,0,0-.48-.38h-10.6V88.73h-5.69V71.79h20.95a1.15,1.15,0,0,1,.62.18,2,2,0,0,1,.59.54,3.33,3.33,0,0,1,.63,2v6.82a5.68,5.68,0,0,1-.11,1.09,4.45,4.45,0,0,1-.37,1,2.59,2.59,0,0,1-.6.79,1.27,1.27,0,0,1-.85.32h-2.46l4.76,4.17Z"/><path class="cls-1" d="M321.49,84.56l-4.57-4.27h8.9V77a4.49,4.49,0,0,0-.23-.61c-.11-.24-.26-.36-.44-.36h-9.9c-.26,0-.45.17-.59.5a2.61,2.61,0,0,0-.19.92V88.73h-5.7V74.39a2.88,2.88,0,0,1,.14-.82,4.7,4.7,0,0,1,.36-.87,3.14,3.14,0,0,1,.52-.68.86.86,0,0,1,.62-.27h19.46a2.22,2.22,0,0,1,1.25,1,2.81,2.81,0,0,1,.47,1.46v14.5h-5.75V84.54Z"/><path class="cls-1" d="M353.33,73.21a3.91,3.91,0,0,1,.36-.67,1.79,1.79,0,0,1,.47-.52.74.74,0,0,1,.52-.22H374a1.06,1.06,0,0,1,.72.27,2.62,2.62,0,0,1,.54.7,4.88,4.88,0,0,1,.36.92,3.41,3.41,0,0,1,.14,1V86.09a4.12,4.12,0,0,1-.09.86,2.74,2.74,0,0,1-.32.88,1.93,1.93,0,0,1-.59.68,1.45,1.45,0,0,1-.9.27H363.28L361,84.57h8.41a.63.63,0,0,0,.45-.18c.13-.12.19-.43.19-.93V77.21a1.59,1.59,0,0,0-.24-.79c-.16-.28-.35-.42-.54-.42h-9.81a.92.92,0,0,0-.44.41,2.62,2.62,0,0,0-.26.62.54.54,0,0,1,0,.18V91.5h-5.69V74.06a.75.75,0,0,1,.09-.3A2.05,2.05,0,0,1,353.33,73.21Z"/><path class="cls-1" d="M397.17,71.79h5.66v6.32H413.4V71.79H419V88.73h-5.6V82.32H402.83v6.41h-5.66Z"/><path class="cls-1" d="M462.88,90.14a3.72,3.72,0,0,1-.36.65,2.52,2.52,0,0,1-.47.51.79.79,0,0,1-.54.22H443.87a1,1,0,0,1-.74-.32,2.58,2.58,0,0,1-.53-.77,3.85,3.85,0,0,1-.3-1,4.78,4.78,0,0,1-.1-1V84.61h5.64v1a4.6,4.6,0,0,0,.11.83,1.9,1.9,0,0,0,.27.68.65.65,0,0,0,.57.27h7.63a.76.76,0,0,0,.64-.33,2.15,2.15,0,0,0,.33-.76.64.64,0,0,0,.06-.18V81.86H442.14a1,1,0,0,1-.74-.32,2.76,2.76,0,0,1-.53-.78,3.87,3.87,0,0,1-.31-1,4.2,4.2,0,0,1-.11-1v-7h5.66v4.11a4.6,4.6,0,0,0,.11.83,1.87,1.87,0,0,0,.29.68.66.66,0,0,0,.56.28h10.41v-5.9h5.69V89.19a.75.75,0,0,1-.09.3A3.75,3.75,0,0,1,462.88,90.14Z"/><path class="cls-1" d="M0,16.77H13.34v14.9h7.25l16.76-19H51.46l-16.68,19H46.9a3,3,0,0,1,2,.72,5.7,5.7,0,0,1,1.38,1.82,10.7,10.7,0,0,1,.85,2.46,12,12,0,0,1,.28,2.53V56.67H38.22V41.58H13.34V56.7H0Z"/><path class="cls-1" d="M94.59,56.7l-24-20H94.34s.21,0,.5-.25a6.42,6.42,0,0,0,.64-.53,2.93,2.93,0,0,0,1-1.57,7.71,7.71,0,0,0,.21-2.14,13.13,13.13,0,0,0-.36-2.93,10.34,10.34,0,0,0-.5-1.45,1.2,1.2,0,0,0-1.14-.9h-25V56.74H56.33v-40h49.34a2.89,2.89,0,0,1,1.46.43,4.47,4.47,0,0,1,1.39,1.28,7.59,7.59,0,0,1,1.08,2,8.12,8.12,0,0,1,.42,2.68V39.21a12.33,12.33,0,0,1-.28,2.57,9.27,9.27,0,0,1-.86,2.45,6,6,0,0,1-1.42,1.86,2.94,2.94,0,0,1-2,.75H99.69l11.19,9.84Z"/><path class="cls-1" d="M144.89,46.86,134.13,36.8h21V29a7.16,7.16,0,0,0-.54-1.42c-.26-.58-.6-.86-1-.86H130.2c-.61,0-1.08.39-1.39,1.18a6.2,6.2,0,0,0-.46,2.17V56.7H115V22.9a6.6,6.6,0,0,1,.32-1.92,9.58,9.58,0,0,1,.86-2,5.93,5.93,0,0,1,1.21-1.6,2.07,2.07,0,0,1,1.46-.64h45.84a5.15,5.15,0,0,1,3,2.27,6.71,6.71,0,0,1,1.07,3.53V56.7H155.09V46.86Z"/><path class="cls-1" d="M173.59,16.77h13.3v14.9h7.21l16.75-19H225l-16.69,19H220.4a3,3,0,0,1,2,.72,5.64,5.64,0,0,1,1.43,1.82,10.24,10.24,0,0,1,.85,2.46A12,12,0,0,1,225,39.2V56.67H211.78V41.58H186.89V56.7h-13.3Z"/><path class="cls-1" d="M283.5,46.79,278,56.7h-43.5a3,3,0,0,1-2-.71A5.89,5.89,0,0,1,231,54.2a8.88,8.88,0,0,1-.86-2.39,12,12,0,0,1-.28-2.53v-26a6.91,6.91,0,0,1,.36-2.21,9.44,9.44,0,0,1,.92-2.11,6.33,6.33,0,0,1,1.32-1.6,2.35,2.35,0,0,1,1.53-.64h49.2l-5.35,10.12H245q-.84,0-1.32,1.11a6.29,6.29,0,0,0-.46,2.46v.8a.58.58,0,0,0,.43.4,2.77,2.77,0,0,0,.5.1H283.5L278,41.62H243.86c-.19,0-.28.26-.28.79v.21a15.3,15.3,0,0,0,.18,2.53,2.28,2.28,0,0,0,1.17,1.68Z"/><path class="cls-1" d="M302.05,27l-.36.22V56.7H287.86V19.48a3.75,3.75,0,0,1,2.78-2.78h24a2.58,2.58,0,0,1,1.74.82,8.75,8.75,0,0,1,1.47,1.74l13.54,22.82a1.14,1.14,0,0,0,.18.25l.25.25h.28V16.34l13.41-7.63V50.28a7.39,7.39,0,0,1-.36,2.28,7.92,7.92,0,0,1-1,2.07,5,5,0,0,1-1.46,1.5,3.14,3.14,0,0,1-1.78.57H326.08a3,3,0,0,1-1.43-.43,3.49,3.49,0,0,1-1.29-1.21L305.47,27.61a1.41,1.41,0,0,0-.93-.5A8.74,8.74,0,0,0,303.4,27Z"/><path class="cls-1" d="M404,46.79l-5.56,9.91H355a3,3,0,0,1-2-.71,6,6,0,0,1-1.43-1.79,9.21,9.21,0,0,1-.85-2.39,11.35,11.35,0,0,1-.29-2.53v-26a7.52,7.52,0,0,1,.36-2.21,9.47,9.47,0,0,1,.93-2.11,5.82,5.82,0,0,1,1.32-1.6,2.25,2.25,0,0,1,1.53-.64h49.2l-5.35,10.12H365.51q-.86,0-1.32,1.11a6.3,6.3,0,0,0-.47,2.46v.8a.61.61,0,0,0,.44.4,2.66,2.66,0,0,0,.49.1H404l-5.56,9.91H364.37c-.2,0-.29.26-.29.79v.21a15.3,15.3,0,0,0,.18,2.53,2.28,2.28,0,0,0,1.17,1.68Z"/><path class="cls-1" d="M413.78,46.79h33.58a.66.66,0,0,0,.33-.15,1.54,1.54,0,0,0,.46-.42,3.36,3.36,0,0,0,.43-1.22,12.21,12.21,0,0,0,.07-1.35v-.93a2.58,2.58,0,0,0-.07-.78,1.7,1.7,0,0,0-.29-.36H410.36a5.47,5.47,0,0,1-1.6-2.14,6,6,0,0,1-.4-2.14V23.4a6.88,6.88,0,0,1,.4-2.25,11.53,11.53,0,0,1,1-2.17,6,6,0,0,1,1.32-1.64,2.35,2.35,0,0,1,1.53-.64h49.2l-5.35,10.12h-33c-.53,0-.94.37-1.25,1.11a6.29,6.29,0,0,0-.46,2.46v.82c0,.19.13.32.39.4a3.41,3.41,0,0,0,.54.1h39.35V49.32a9.36,9.36,0,0,1-.35,2.53,9.84,9.84,0,0,1-1,2.39A6.84,6.84,0,0,1,459.28,56a2.66,2.66,0,0,1-1.75.71h-49Z"/><rect class="cls-1" x="132.11" width="19.36" height="10.67"/></g></g></g></g></svg>