<svg xmlns="http://www.w3.org/2000/svg" viewBox="0 0 732.62 148.31"><defs><style>.cls-1{fill:#fff;}</style></defs><g id="Layer_2" data-name="Layer 2"><g id="Layer_1-2" data-name="Layer 1"><path class="cls-1" d="M269.72,130a4.32,4.32,0,0,1,.36-.67,2.17,2.17,0,0,1,.47-.52.79.79,0,0,1,.53-.22h19.31a1.05,1.05,0,0,1,.71.27,2.63,2.63,0,0,1,.55.7,4.4,4.4,0,0,1,.36.92,3.7,3.7,0,0,1,.14.95v11.45a4.58,4.58,0,0,1-.09.86,3,3,0,0,1-.32.88,2.28,2.28,0,0,1-.59.68,1.49,1.49,0,0,1-.91.27H279.68l-2.27-4.21h8.41a.6.6,0,0,0,.44-.18,1.39,1.39,0,0,0,.2-.93V134a1.74,1.74,0,0,0-.24-.79c-.17-.28-.35-.42-.55-.42h-9.81a1,1,0,0,0-.44.41,3.12,3.12,0,0,0-.26.62.69.69,0,0,1,0,.18.9.9,0,0,0,0,.15v14.14h-5.7v-17.2a2.13,2.13,0,0,0,0-.24,1,1,0,0,1,.09-.3A2.67,2.67,0,0,1,269.72,130Z"/><path class="cls-1" d="M313.57,128.58h5.66v6.32h10.56v-6.32h5.6v16.94h-5.6v-6.41H319.23v6.41h-5.66Z"/><path class="cls-1" d="M358.54,145.52a2.66,2.66,0,0,1-1.24-1,2.62,2.62,0,0,1-.46-1.45V131.18a3,3,0,0,1,.17-1,2.59,2.59,0,0,1,.47-.85,2.7,2.7,0,0,1,.68-.59,1.6,1.6,0,0,1,.84-.23h18.3a2,2,0,0,1,1.46.71,3.23,3.23,0,0,1,.88,1.68v12a2.87,2.87,0,0,1-.14.81,4.79,4.79,0,0,1-.35.87,2.38,2.38,0,0,1-.51.68.93.93,0,0,1-.61.27Zm4.09-5.23a4.41,4.41,0,0,0,.21.6c.1.24.24.37.42.37h9.93c.24,0,.43-.17.56-.51a2.52,2.52,0,0,0,.19-.92v-5.69l0-.3a2.22,2.22,0,0,0-.44-.73.88.88,0,0,0-.65-.3h-9.21a.84.84,0,0,0-.72.39,1.57,1.57,0,0,0-.27.91Z"/><path class="cls-1" d="M401.21,143.52a.71.71,0,0,1-.09-.3q0-.21,0-.24V126.82h5.69V130H418l-2.12,4.17h-9.11v5.75s0,.07,0,.15a.53.53,0,0,0,0,.18,2.53,2.53,0,0,0,.35.76.75.75,0,0,0,.65.34h9.32a.67.67,0,0,0,.59-.28,1.84,1.84,0,0,0,.29-.68,3.84,3.84,0,0,0,.09-.83c0-.28,0-.53,0-.76v-.18h5.66v3.84a5.93,5.93,0,0,1-.1,1,5.21,5.21,0,0,1-.32,1,2.85,2.85,0,0,1-.53.77,1,1,0,0,1-.75.31H402.78a.81.81,0,0,1-.52-.21,2.57,2.57,0,0,1-.47-.51,3.51,3.51,0,0,1-.37-.65A3.85,3.85,0,0,1,401.21,143.52Z"/><path class="cls-1" d="M447,145.52a2.71,2.71,0,0,1-1.24-1,2.61,2.61,0,0,1-.45-1.45V131.18a3,3,0,0,1,.17-1,2.77,2.77,0,0,1,.46-.85,2.74,2.74,0,0,1,.69-.59,1.6,1.6,0,0,1,.83-.23h18.31a2,2,0,0,1,1.45.71,3.16,3.16,0,0,1,.88,1.68v12a2.83,2.83,0,0,1-.13.81,4.79,4.79,0,0,1-.35.87,2.58,2.58,0,0,1-.51.68,1,1,0,0,1-.61.27Zm4.09-5.23a4.41,4.41,0,0,0,.21.6c.1.24.25.37.43.37h9.93c.23,0,.42-.17.56-.51a2.52,2.52,0,0,0,.19-.92v-5.69l0-.3a2.2,2.2,0,0,0-.43-.73.92.92,0,0,0-.66-.3h-9.2a.86.86,0,0,0-.73.39,1.57,1.57,0,0,0-.27.91Z"/><path class="cls-1" d="M512.52,137.17v11h-5.88v-2.61H491.72a1.55,1.55,0,0,1-1-.29,2.2,2.2,0,0,1-.68-.74,3.59,3.59,0,0,1-.41-1,5.39,5.39,0,0,1-.14-1.2v-11a3.63,3.63,0,0,1,.12-.88,4.43,4.43,0,0,1,.35-.9,3.74,3.74,0,0,1,.5-.68.85.85,0,0,1,.61-.27h21.06l-2.32,4.18H496.08a.43.43,0,0,0-.33.18,2.33,2.33,0,0,0-.28.45,4.4,4.4,0,0,0-.18.55,2,2,0,0,0-.05.45V140c0,.77.23,1.15.72,1.15h10c.16,0,.3-.14.43-.44a3.79,3.79,0,0,0,.23-.77v-2.72Z"/><path class="cls-1" d="M550.16,145.52,540,137.05H550s.09,0,.21-.11a1.49,1.49,0,0,0,.28-.23,1.26,1.26,0,0,0,.42-.66,3.1,3.1,0,0,0,.13-.94,5.7,5.7,0,0,0-.16-1.24,5,5,0,0,0-.21-.62.51.51,0,0,0-.48-.38h-10.6v12.65h-5.69V128.58h20.95a1.16,1.16,0,0,1,.62.18,2,2,0,0,1,.59.54,3.28,3.28,0,0,1,.63,2v6.82a6.19,6.19,0,0,1-.11,1.09,4.56,4.56,0,0,1-.37,1,2.7,2.7,0,0,1-.6.79,1.28,1.28,0,0,1-.85.32h-2.46l4.76,4.17Z"/><path class="cls-1" d="M590.9,141.35l-4.57-4.27h8.9v-3.3a3.76,3.76,0,0,0-.23-.61c-.11-.24-.26-.36-.44-.36h-9.9c-.26,0-.45.17-.59.5a2.52,2.52,0,0,0-.19.92v11.29h-5.7V131.18a2.88,2.88,0,0,1,.14-.82,5.13,5.13,0,0,1,.36-.87,3.12,3.12,0,0,1,.52-.68.89.89,0,0,1,.62-.27h19.46a2.22,2.22,0,0,1,1.25,1A2.83,2.83,0,0,1,601,131v14.5h-5.75v-4.17Z"/><path class="cls-1" d="M622.74,130a3.61,3.61,0,0,1,.36-.67,2,2,0,0,1,.47-.52.77.77,0,0,1,.52-.22H643.4a1.08,1.08,0,0,1,.72.27,2.42,2.42,0,0,1,.54.7,4.4,4.4,0,0,1,.36.92,3.31,3.31,0,0,1,.14.95v11.45a4.58,4.58,0,0,1-.09.86,2.74,2.74,0,0,1-.32.88,2,2,0,0,1-.59.68,1.46,1.46,0,0,1-.9.27H632.69l-2.27-4.21h8.41a.62.62,0,0,0,.45-.18c.13-.12.19-.43.19-.93V134a1.62,1.62,0,0,0-.24-.79c-.16-.28-.35-.42-.54-.42h-9.81a.92.92,0,0,0-.44.41,2.62,2.62,0,0,0-.26.62.82.82,0,0,1,0,.18.9.9,0,0,0,0,.15v14.14h-5.69v-17.2s0-.09,0-.24a.76.76,0,0,1,.09-.3A2,2,0,0,1,622.74,130Z"/><path class="cls-1" d="M666.58,128.58h5.66v6.32h10.57v-6.32h5.6v16.94h-5.6v-6.41H672.24v6.41h-5.66Z"/><path class="cls-1" d="M732.29,146.93a3.72,3.72,0,0,1-.36.65,2.57,2.57,0,0,1-.47.51.8.8,0,0,1-.54.22H713.28a1,1,0,0,1-.74-.32,2.7,2.7,0,0,1-.53-.77,3.86,3.86,0,0,1-.3-1,5.19,5.19,0,0,1-.1-1V141.4h5.64v.19c0,.22,0,.47,0,.76a4.6,4.6,0,0,0,.11.83,1.83,1.83,0,0,0,.27.68.64.64,0,0,0,.57.27h7.63a.76.76,0,0,0,.64-.33,2,2,0,0,0,.33-.76.93.93,0,0,0,.06-.18.9.9,0,0,0,0-.15v-4.06H711.55a1,1,0,0,1-.74-.32,2.82,2.82,0,0,1-.53-.78,4.16,4.16,0,0,1-.31-1,4.35,4.35,0,0,1-.11-1v-7h5.66v3.35c0,.22,0,.47,0,.76a4.6,4.6,0,0,0,.11.83,1.84,1.84,0,0,0,.29.68.64.64,0,0,0,.56.28h10.41v-5.9h5.69v17.19s0,.1,0,.24a.76.76,0,0,1-.09.3A3.49,3.49,0,0,1,732.29,146.93Z"/><path class="cls-1" d="M269.41,73.56h13.34v14.9H290l16.76-19h14.11l-16.68,19h12.12a3,3,0,0,1,2,.72A5.75,5.75,0,0,1,319.69,91a10.82,10.82,0,0,1,.85,2.46,12,12,0,0,1,.28,2.53v17.47H307.63V98.37H282.75v15.12H269.41Z"/><path class="cls-1" d="M364,113.49l-24-20h23.75c.05,0,.21,0,.5-.25a6.39,6.39,0,0,0,.64-.53,2.94,2.94,0,0,0,1-1.57A8,8,0,0,0,366.1,89a13.22,13.22,0,0,0-.36-2.93,9.71,9.71,0,0,0-.5-1.45,1.19,1.19,0,0,0-1.14-.9h-25v29.81H325.74V73.56h49.34a2.88,2.88,0,0,1,1.46.43,4.49,4.49,0,0,1,1.39,1.28,7.66,7.66,0,0,1,1.08,2,8,8,0,0,1,.42,2.68V96a12.53,12.53,0,0,1-.28,2.57,9.58,9.58,0,0,1-.86,2.45,6,6,0,0,1-1.42,1.86,2.94,2.94,0,0,1-2,.75H369.1l11.19,9.84Z"/><path class="cls-1" d="M414.3,103.65,403.54,93.59h21V85.82A7.55,7.55,0,0,0,424,84.4c-.26-.58-.6-.86-1-.86H399.61c-.61,0-1.08.39-1.39,1.18a6.09,6.09,0,0,0-.46,2.17v26.6h-13.4V79.69a6.52,6.52,0,0,1,.32-1.92,10.14,10.14,0,0,1,.86-2,6.12,6.12,0,0,1,1.21-1.6,2.06,2.06,0,0,1,1.46-.64h45.84A5.14,5.14,0,0,1,437,75.8a6.76,6.76,0,0,1,1.07,3.53v34.16H424.5v-9.84Z"/><path class="cls-1" d="M443,73.56H456.3v14.9h7.21l16.75-19h14.12l-16.69,19h12.12a3,3,0,0,1,2,.72A5.62,5.62,0,0,1,493.24,91a10.36,10.36,0,0,1,.85,2.46,12,12,0,0,1,.29,2.53v17.47H481.19V98.37H456.3v15.12H443Z"/><path class="cls-1" d="M552.91,103.58l-5.55,9.91h-43.5a3,3,0,0,1-2-.71,5.89,5.89,0,0,1-1.43-1.79,9.14,9.14,0,0,1-.86-2.39,11.88,11.88,0,0,1-.28-2.53v-26a7,7,0,0,1,.36-2.21,9.56,9.56,0,0,1,.92-2.11,6.2,6.2,0,0,1,1.32-1.6,2.33,2.33,0,0,1,1.53-.64h49.2l-5.35,10.12H514.41c-.56,0-1,.37-1.32,1.11a6.24,6.24,0,0,0-.46,2.46V88a.58.58,0,0,0,.43.4,2.64,2.64,0,0,0,.5.1h39.35l-5.55,9.91H513.27c-.19,0-.28.26-.28.79v.21a15.9,15.9,0,0,0,.18,2.53,2.27,2.27,0,0,0,1.17,1.68Z"/><path class="cls-1" d="M571.46,83.82l-.36.22v29.45H557.27V76.27a3.75,3.75,0,0,1,2.78-2.78h24a2.59,2.59,0,0,1,1.74.82,8.71,8.71,0,0,1,1.47,1.74l13.54,22.82a1.14,1.14,0,0,0,.18.25l.25.25h.28V73.13l13.41-7.63v41.57a7.54,7.54,0,0,1-.36,2.28,7.85,7.85,0,0,1-1,2.07,5.1,5.1,0,0,1-1.46,1.5,3.16,3.16,0,0,1-1.78.57H595.49a3,3,0,0,1-1.43-.43,3.55,3.55,0,0,1-1.29-1.21L574.88,84.4a1.37,1.37,0,0,0-.93-.5,8.74,8.74,0,0,0-1.14-.08Z"/><path class="cls-1" d="M673.42,103.58l-5.56,9.91H624.37a3.06,3.06,0,0,1-2-.71,6,6,0,0,1-1.43-1.79,9.13,9.13,0,0,1-.85-2.39,11.3,11.3,0,0,1-.29-2.53v-26a7.29,7.29,0,0,1,.36-2.21,9.58,9.58,0,0,1,.93-2.11,6,6,0,0,1,1.32-1.6,2.29,2.29,0,0,1,1.53-.64h49.2l-5.35,10.12H634.92q-.85,0-1.32,1.11a6.24,6.24,0,0,0-.47,2.46V88a.6.6,0,0,0,.44.4,2.58,2.58,0,0,0,.49.1h39.36l-5.56,9.91H633.78c-.2,0-.29.26-.29.79v.21a15.9,15.9,0,0,0,.18,2.53,2.29,2.29,0,0,0,1.17,1.68Z"/><path class="cls-1" d="M683.19,103.58h33.58s.12,0,.33-.15a1.6,1.6,0,0,0,.46-.42,3.38,3.38,0,0,0,.43-1.22,12.69,12.69,0,0,0,.07-1.35v-.93a2.68,2.68,0,0,0-.07-.78,1.56,1.56,0,0,0-.29-.36H679.77a5.44,5.44,0,0,1-1.6-2.14,6,6,0,0,1-.4-2.14V80.19a7,7,0,0,1,.4-2.25,11.88,11.88,0,0,1,1-2.17,5.94,5.94,0,0,1,1.32-1.64,2.33,2.33,0,0,1,1.53-.64h49.2l-5.35,10.12H692.89c-.53,0-.94.37-1.25,1.11a6.24,6.24,0,0,0-.46,2.46V88c0,.19.13.32.39.4a3.2,3.2,0,0,0,.54.1h39.35v17.61a9.51,9.51,0,0,1-.35,2.53,10,10,0,0,1-1,2.39,6.72,6.72,0,0,1-1.42,1.79,2.66,2.66,0,0,1-1.75.71H677.92Z"/><path class="cls-1" d="M176.47,53.18A28.22,28.22,0,1,0,205.13,77,28.23,28.23,0,0,0,176.47,53.18ZM161.8,82.83l-5.85.55a21.45,21.45,0,0,1,19.32-23.3l.55,5.86A15.54,15.54,0,0,0,161.8,82.83Z"/><path class="cls-1" d="M113.17,137.67a78.16,78.16,0,0,0,2.17,10.64h143.6c.1-.91.26-1.8.29-2.73,2.06-57.37-28.81-107,23.18-76.16,0,0-88.09-143.84-181.26-17.42,0,0-71.9-13.48-101.15,84.11C30.29,121.85,103,108.34,113.17,137.67ZM173,35.4a46.19,46.19,0,1,1-41.71,50.28A46.19,46.19,0,0,1,173,35.4Z"/><rect class="cls-1" x="401.52" y="56.79" width="19.36" height="10.67"/></g></g></svg>