<svg xmlns="http://www.w3.org/2000/svg" viewBox="0 0 282.41 148.31"><defs><style>.cls-1{fill:#fff;}</style></defs><g id="Layer_2" data-name="Layer 2"><g id="Layer_1-2" data-name="Layer 1"><g id="Layer_2-2" data-name="Layer 2"><g id="Layer_1-2-2" data-name="Layer 1-2"><path class="cls-1" d="M176.47,53.18a28.22,28.22,0,1,0,29,27.43,27.21,27.21,0,0,0-.33-3.61A28.23,28.23,0,0,0,176.47,53.18ZM161.8,82.83l-5.85.55a21.45,21.45,0,0,1,19.32-23.3l.55,5.86A15.54,15.54,0,0,0,161.8,82.83Z"/><path class="cls-1" d="M113.17,137.67a78.69,78.69,0,0,0,2.17,10.64h143.6c.1-.91.26-1.8.29-2.73,2.06-57.37-28.81-107,23.18-76.16,0,0-88.09-143.84-181.26-17.42,0,0-71.9-13.48-101.15,84.11C30.29,121.85,103,108.34,113.17,137.67ZM173,35.4a46.19,46.19,0,1,1-41.71,50.28A46.19,46.19,0,0,1,173,35.4Z"/></g></g></g></g></svg>